<?xml version="1.0" encoding="UTF-8" standalone="no"?>
<!-- Created with Inkscape (http://www.inkscape.org/) -->

<svg
   xmlns:dc="http://purl.org/dc/elements/1.1/"
   xmlns:cc="http://creativecommons.org/ns#"
   xmlns:rdf="http://www.w3.org/1999/02/22-rdf-syntax-ns#"
   xmlns:svg="http://www.w3.org/2000/svg"
   xmlns="http://www.w3.org/2000/svg"
   xmlns:sodipodi="http://sodipodi.sourceforge.net/DTD/sodipodi-0.dtd"
   xmlns:inkscape="http://www.inkscape.org/namespaces/inkscape"
   width="160"
   height="10.82"
   id="svg3636"
   version="1.1"
   inkscape:version="0.48.5 r10040"
   sodipodi:docname="　footer.svg">
  <defs
     id="defs3638" />
  <sodipodi:namedview
     id="base"
     pagecolor="#ffffff"
     bordercolor="#666666"
     borderopacity="1.0"
     inkscape:pageopacity="0.0"
     inkscape:pageshadow="2"
     inkscape:zoom="4.3350727"
     inkscape:cx="76.784831"
     inkscape:cy="7.792581"
     inkscape:document-units="px"
     inkscape:current-layer="layer1"
     showgrid="false"
     inkscape:window-width="1366"
     inkscape:window-height="702"
     inkscape:window-x="0"
     inkscape:window-y="27"
     inkscape:window-maximized="1"
     showborder="true"
     height="1052.36px" />
  <metadata
     id="metadata3641">
    <rdf:RDF>
      <cc:Work
         rdf:about="">
        <dc:format>image/svg+xml</dc:format>
        <dc:type
           rdf:resource="http://purl.org/dc/dcmitype/StillImage" />
        <dc:title></dc:title>
      </cc:Work>
    </rdf:RDF>
  </metadata>
  <g
     inkscape:label="レイヤー 1"
     inkscape:groupmode="layer"
     id="layer1"
     transform="translate(0,-1041.5421)">
    <g
       style="font-size:6.03886271px;font-style:normal;font-variant:normal;font-weight:500;font-stretch:normal;line-height:125%;letter-spacing:0px;word-spacing:0px;fill:#354358;fill-opacity:1;stroke:none;font-family:'M+ 1c';-inkscape-font-specification:'M+ 1c Medium'"
       id="text4686"
       transform="matrix(0.98168175,0,0,0.98168175,44.725206,39.333027)">
      <path
         d="m 1.763452,1028.7032 0,0.3624 -0.6038863,0 0,-5.0123 1.6184152,0 0,4.6499 -1.0145289,0 m 0,-2.1437 0,1.6304 0.440837,0 0,-1.6304 -0.440837,0 m 0,-0.5134 0.440837,0 0,-1.4614 -0.440837,0 0,1.4614 m 1.9082806,-2.0834 1.0688787,0 0,1.9747 -1.0688787,0 0,0.6402 0.9058294,0 0,0.5253 -0.9058294,0 0,0.6824 0.9058294,0 0,0.5435 -0.9058294,0 0,0.9179 -0.6220028,0 0,-5.284 0.6220028,0 m 0,0.5435 0,0.9361 0.5072645,0 0,-0.9361 -0.5072645,0 m 1.2923166,0 0,-0.5435 1.4855603,0 0,1.9747 -1.4855603,0 0,-0.5253 0.881674,0 0,-0.9059 -0.881674,0 m -0.3744094,2.6571 0.5133033,-0.2234 c 0.08454,0.2295 0.2053168,0.459 0.3623317,0.6884 0.1570056,-0.2375 0.2797957,-0.5072 0.3683707,-0.8092 l -1.0628399,0 0,-0.5435 1.6788039,0 0,0.5435 c -0.1529901,0.5033 -0.3542853,0.924 -0.6038863,1.2621 0.2455751,0.2416 0.5112848,0.4288 0.7971299,0.5617 l -0.2113602,0.5435 c -0.3301298,-0.153 -0.6481763,-0.3825 -0.9541403,-0.6885 -0.2777921,0.2657 -0.6038904,0.4952 -0.9782958,0.6885 l -0.3019431,-0.4832 c 0.3542762,-0.169 0.6582319,-0.3804 0.9118682,-0.634 -0.2093513,-0.2778 -0.3824652,-0.5798 -0.5193421,-0.9059"
         id="path3720"
         inkscape:connector-curvature="0" />
      <path
         d="m 7.3312834,1024.9773 c 1.2077708,-0.302 2.1156123,-0.4529 2.7235276,-0.4529 1.52984,0 2.294762,0.6381 2.294767,1.9143 -5e-6,1.5701 -1.298359,2.3551 -3.8950661,2.3551 l -0.048311,-0.6039 c 1.1272516,0 1.9525621,-0.1388 2.4759341,-0.4166 0.523363,-0.2819 0.785047,-0.7066 0.785052,-1.2742 -5e-6,-0.463 -0.134873,-0.8052 -0.404604,-1.0266 -0.26974,-0.2215 -0.69246,-0.3322 -1.2681612,-0.3322 -0.5354485,0 -1.3788755,0.145 -2.5302835,0.4348 l -0.132855,-0.5978"
         id="path3722"
         inkscape:connector-curvature="0" />
      <path
         d="m 14.131043,1024.2345 2.838265,0 0,0.5797 c -0.374413,0.056 -0.674343,0.1691 -0.89979,0.3382 -0.225454,0.1651 -0.338179,0.3422 -0.338177,0.5314 -2e-6,0.1329 0.04026,0.2698 0.120778,0.4107 0.08052,0.1409 0.223434,0.322 0.428759,0.5435 0.245577,0.2697 0.416678,0.4972 0.513303,0.6823 0.09662,0.1812 0.144929,0.3704 0.144933,0.5677 -4e-6,0.3664 -0.132859,0.6582 -0.398565,0.8756 -0.265713,0.2215 -0.615967,0.3322 -1.050762,0.3322 -0.374412,0 -0.730704,-0.093 -1.068879,-0.2778 l 0.205322,-0.5314 c 0.382459,0.157 0.660246,0.2355 0.833363,0.2355 0.233499,0 0.42473,-0.058 0.573692,-0.1751 0.148955,-0.1168 0.223434,-0.2698 0.223438,-0.459 -4e-6,-0.1449 -0.03825,-0.2879 -0.114739,-0.4288 -0.0765,-0.1449 -0.227467,-0.3341 -0.452915,-0.5676 -0.225453,-0.2335 -0.386489,-0.4368 -0.483109,-0.6099 -0.0926,-0.1772 -0.138896,-0.3563 -0.138893,-0.5375 -3e-6,-0.1771 0.0463,-0.3402 0.138893,-0.4891 0.09259,-0.153 0.245578,-0.308 0.458954,-0.465 l -0.006,-0.012 -1.527832,0 0,-0.5435 m 2.886576,-0.4167 0.519342,-0.1812 c 0.148954,0.3664 0.281809,0.7167 0.398565,1.0508 l -0.519342,0.1631 c -0.104678,-0.306 -0.237533,-0.6502 -0.398565,-1.0327 m 0.917907,-0.091 0.53142,-0.1872 c 0.136875,0.3382 0.271743,0.6945 0.404604,1.0689 l -0.53142,0.1691 c -0.120782,-0.3342 -0.25565,-0.6844 -0.404604,-1.0508 m -0.748819,2.5907 0.53142,-0.2416 c 0.394534,0.6804 0.708555,1.387 0.942063,2.1197 l -0.555576,0.1691 c -0.221429,-0.7247 -0.527398,-1.4071 -0.917907,-2.0472 m -3.387802,-0.1751 0.573692,0.1389 c -0.189219,0.7045 -0.473045,1.411 -0.851479,2.1196 l -0.53142,-0.2295 c 0.338176,-0.6481 0.607911,-1.3245 0.809207,-2.029"
         id="path3724"
         inkscape:connector-curvature="0" />
      <path
         d="m 20.157828,1024.0231 0.646159,0.018 c -0.05234,1.1273 -0.07851,2.0271 -0.07851,2.6994 -1e-6,0.3543 0.02013,0.6422 0.06039,0.8636 0.04026,0.2214 0.108698,0.3945 0.205321,0.5193 0.09662,0.1208 0.209345,0.2033 0.338177,0.2476 0.128826,0.04 0.295901,0.06 0.501225,0.06 0.821282,0 1.465427,-0.6019 1.932436,-1.8056 l 0.573692,0.2174 c -0.265715,0.7287 -0.613956,1.2762 -1.044723,1.6425 -0.42675,0.3664 -0.913885,0.5496 -1.461405,0.5496 -0.656225,0 -1.113165,-0.1631 -1.370822,-0.4892 -0.253633,-0.3301 -0.380449,-0.932 -0.380448,-1.8056 -10e-7,-0.7971 0.02617,-1.7029 0.0785,-2.7175"
         id="path3726"
         inkscape:connector-curvature="0" />
      <path
         d="m 28.503536,1028.3107 c 0.462976,-0.056 0.819268,-0.2375 1.068879,-0.5435 0.253627,-0.31 0.380443,-0.7226 0.380448,-1.2379 -5e-6,-0.463 -0.148963,-0.8495 -0.446876,-1.1595 -0.297921,-0.314 -0.680382,-0.4891 -1.147384,-0.5254 -0.0926,0.773 -0.203311,1.4232 -0.332137,1.9506 -0.124806,0.5274 -0.265713,0.9279 -0.42272,1.2017 -0.157013,0.2738 -0.316037,0.465 -0.477071,0.5737 -0.157012,0.1087 -0.332139,0.163 -0.525381,0.163 -0.309996,0 -0.593822,-0.1811 -0.851479,-0.5435 -0.257659,-0.3623 -0.386488,-0.8051 -0.386488,-1.3285 0,-0.769 0.261684,-1.393 0.785053,-1.8721 0.523366,-0.4831 1.20777,-0.7246 2.053213,-0.7246 0.680375,0 1.241988,0.2134 1.684843,0.6401 0.44687,0.4268 0.670308,0.9682 0.670313,1.6245 -5e-6,0.6844 -0.175132,1.2359 -0.525381,1.6546 -0.346233,0.4147 -0.81525,0.6482 -1.407055,0.7005 l -0.120777,-0.5737 m -0.772974,-3.4361 c -0.539474,0.085 -0.968233,0.306 -1.286278,0.6643 -0.318048,0.3543 -0.477071,0.7951 -0.47707,1.3225 -10e-7,0.3422 0.07045,0.6401 0.21136,0.8937 0.144931,0.2497 0.285838,0.3745 0.42272,0.3745 0.06441,0 0.130841,-0.026 0.199283,-0.079 0.06844,-0.056 0.14493,-0.159 0.229477,-0.3079 0.08857,-0.153 0.171098,-0.3463 0.247593,-0.5798 0.08052,-0.2335 0.161034,-0.5475 0.241554,-0.942 0.08052,-0.3946 0.150969,-0.8435 0.211361,-1.3467"
         id="path3728"
         inkscape:connector-curvature="0" />
      <path
         d="m 32.416719,1027.3445 0,1.0266 3.164364,0 0,-1.0266 -3.164364,0 m 0,-0.5133 3.164364,0 0,-0.936 -3.164364,0 0,0.936 m -1.044724,-2.2827 0,-0.5556 5.253811,0 0,0.5556 -2.312884,0 c -0.05234,0.2818 -0.116755,0.5556 -0.193244,0.8213 l 2.113602,0 0,3.8166 -0.652197,0 0,-0.302 -3.164364,0 0,0.302 -0.652198,0 0,-3.8166 1.678804,0 c 0.06844,-0.2255 0.136879,-0.4992 0.205322,-0.8213 l -2.276652,0"
         id="path3730"
         inkscape:connector-curvature="0" />
      <path
         d="m 41.716569,1027.882 -2.475934,0.4106 -0.05435,-0.5556 2.530284,-0.4227 0,-3.5025 0.628041,0 0,3.3938 0.543498,-0.084 0.05435,0.5555 -0.597848,0.097 0,1.4734 -0.628041,0 0,-1.3647 m -0.555576,-2.2223 c -0.346232,-0.3905 -0.712589,-0.7629 -1.099073,-1.1172 l 0.434798,-0.4046 c 0.418691,0.3744 0.787061,0.7428 1.105112,1.1051 l -0.440837,0.4167 m -0.392526,1.5097 c -0.342205,-0.3905 -0.742783,-0.7972 -1.201734,-1.2199 l 0.42876,-0.4106 c 0.491157,0.4428 0.895761,0.8474 1.213811,1.2138 l -0.440837,0.4167 m -3.460268,-1.7996 0.79713,0 0,-0.7669 c -0.157012,0.02 -0.392527,0.042 -0.706547,0.066 l -0.05435,-0.5073 c 0.676352,-0.048 1.374846,-0.165 2.095485,-0.3502 l 0.150972,0.4831 c -0.27779,0.08 -0.575707,0.151 -0.893752,0.2113 l 0,0.8636 0.736742,0 0,0.5254 -0.537459,0 c 0.128827,0.2295 0.354277,0.6441 0.676352,1.244 l -0.446875,0.308 c -0.229479,-0.4912 -0.372399,-0.7931 -0.42876,-0.9059 l 0,2.7054 -0.591808,0 0,-2.1377 c -0.161038,0.4388 -0.362333,0.8293 -0.603887,1.1715 l -0.350254,-0.5314 c 0.446876,-0.6482 0.746806,-1.2661 0.899791,-1.8539 l -0.74278,0 0,-0.5254"
         id="path3732"
         inkscape:connector-curvature="0" />
      <path
         d="m 46.426879,1027.0728 1.370822,0 0,-0.302 -1.370822,0 0,0.302 m 0,0.8152 1.370822,0 0,-0.3201 -1.370822,0 0,0.3201 m 0,-2.2646 1.292317,0 0,-0.3321 -1.292317,0 0,0.3321 m -1.992825,0 1.292317,0 0,-0.3321 -1.292317,0 0,0.3321 m 4.390254,1.4494 0,0.4951 -0.392526,0 0,1.087 -0.634081,0 0,-0.3019 -1.370822,0 0,0.1389 c -3e-6,0.3301 -0.04831,0.5334 -0.144933,0.6099 -0.0926,0.077 -0.342205,0.1147 -0.748819,0.1148 -0.173116,-10e-5 -0.471033,-0.01 -0.893751,-0.03 l -0.01208,-0.5133 c 0.462978,0.02 0.740765,0.03 0.833363,0.03 0.132853,0 0.209345,-0.01 0.229477,-0.018 0.02415,-0.016 0.03623,-0.066 0.03623,-0.1509 l 0,-0.1812 -2.155874,0 0,-0.465 2.155874,0 0,-0.3201 -2.397428,0 0,-0.4951 2.397428,0 0,-0.302 -2.155874,0 0,-0.4831 2.155874,0 0,-0.2416 -1.292317,0 -0.640119,0 0,-1.2077 1.932436,0 0,-0.2416 -2.33704,0 0,-0.4952 2.33704,0 0,-0.3804 0.700508,0 0,0.3804 2.33704,0 0,0.4952 -2.33704,0 0,0.2416 1.932436,0 0,1.2077 -1.932436,0 0,0.2416 2.004903,0 0,0.7851 0.392526,0"
         id="path3734"
         inkscape:connector-curvature="0" />
      <path
         d="m 52.526132,1027.2418 0,-0.9541 -0.821285,0 0,0.9541 0.821285,0 m 0.567653,0 0.821285,0 0,-0.9541 -0.821285,0 0,0.9541 m -2.777877,-0.9541 0,0.9541 0.821285,0 0,-0.9541 -0.821285,0 m 0.821285,-1.3889 -0.821285,0 0,0.8756 0.821285,0 0,-0.8756 m 1.388939,0 -0.821285,0 0,0.8756 0.821285,0 0,-0.8756 m 0.567653,0 0,0.8756 0.821285,0 0,-0.8756 -0.821285,0 m 1.829775,2.8865 -5.616142,0 0,-0.5435 0.392526,0 0,-2.8745 1.437249,0 0,-0.628 0.567654,0 0,0.628 0.821285,0 0,-0.628 0.567653,0 0,0.628 1.437249,0 0,2.8745 0.392526,0 0,0.5435 m -5.507442,0.9361 c 0.797128,-0.2496 1.427182,-0.5435 1.890164,-0.8817 l 0.332137,0.4469 c -0.217401,0.1771 -0.505253,0.3522 -0.863557,0.5253 -0.354282,0.1772 -0.728691,0.3261 -1.123229,0.4469 l -0.235515,-0.5374 m 3.18248,-0.3805 0.247594,-0.4771 c 0.817254,0.302 1.47549,0.608 1.974708,0.918 l -0.289866,0.5193 c -0.507269,-0.3221 -1.151414,-0.6421 -1.932436,-0.9602"
         id="path3736"
         inkscape:connector-curvature="0" />
    </g>
    <g
       style="font-size:10.0847168px;font-style:normal;font-variant:normal;font-weight:normal;font-stretch:normal;line-height:319.00000572%;letter-spacing:0px;word-spacing:0px;fill:#354358;fill-opacity:1;stroke:none;font-family:'IPA明朝';-inkscape-font-specification:'IPA明朝'"
       id="text4632-4"
       transform="matrix(0.98168175,0,0,0.98168175,43.644226,40.64264)">
      <path
         d="m 67.64545,1020.4824 c 0.183827,0 0.349607,0.044 0.497342,0.1329 0.347965,0.1871 0.521953,0.4777 0.521962,0.8716 -9e-6,0.1773 -0.04433,0.3398 -0.132952,0.4875 -0.187129,0.348 -0.477655,0.522 -0.87158,0.522 -0.223238,0 -0.421846,-0.067 -0.595825,-0.2019 -0.275762,-0.2036 -0.413639,-0.4728 -0.413631,-0.8076 -8e-6,-0.2889 0.103399,-0.5335 0.310223,-0.7337 0.193676,-0.1806 0.421829,-0.2708 0.684461,-0.2708 m 0.02462,0.3348 c -0.137885,0 -0.259348,0.033 -0.364389,0.099 -0.213389,0.1346 -0.320079,0.325 -0.320071,0.5712 -8e-6,0.1707 0.06072,0.3217 0.182194,0.453 0.12802,0.1478 0.29216,0.2216 0.492418,0.2216 0.114889,0 0.215013,-0.023 0.300375,-0.069 0.246199,-0.1281 0.369304,-0.3299 0.369313,-0.6057 -9e-6,-0.1806 -0.06731,-0.3365 -0.201891,-0.4678 -0.131321,-0.1346 -0.28397,-0.2019 -0.457949,-0.2019 m -7.504447,1.4379 c 0.111613,0.1937 0.233076,0.2905 0.364389,0.2905 0.160855,0 0.645065,-0.2003 1.452633,-0.6008 0.384082,-0.1936 0.646705,-0.3643 0.787868,-0.5121 0.09191,-0.095 0.172342,-0.1428 0.241285,-0.1428 0.11161,0 0.275749,0.087 0.492418,0.261 0.121458,0.1018 0.182189,0.1855 0.182194,0.2511 -5e-6,0.069 -0.07715,0.1806 -0.231436,0.3349 -1.628265,1.6053 -2.442395,3.03 -2.442392,4.2742 -3e-6,0.6434 0.211737,1.1522 0.635219,1.5265 0.370951,0.3282 0.828899,0.4924 1.373845,0.4924 0.820692,0 1.478889,-0.2987 1.974596,-0.8962 0.498976,-0.6205 0.748468,-1.5052 0.748475,-2.6541 -7e-6,-0.7978 -0.14445,-1.7596 -0.433328,-2.8856 -0.04597,-0.1641 -0.119828,-0.3365 -0.221588,-0.5171 -0.06894,-0.1247 -0.103414,-0.2051 -0.103408,-0.2412 -6e-6,-0.1346 0.160851,-0.2019 0.48257,-0.2019 0.21994,0 0.364382,0.1247 0.433327,0.3742 0.07221,0.2429 0.223223,0.5548 0.453025,0.9356 0.377512,0.5942 0.83546,1.1129 1.373846,1.556 0.0098,0.01 0.02297,0.018 0.03939,0.034 0.03938,0.033 0.07057,0.056 0.09356,0.069 0.18711,0.1675 0.280669,0.3579 0.280679,0.5713 -1e-5,0.2888 -0.08372,0.4333 -0.251134,0.4333 -0.09849,0 -0.303666,-0.1822 -0.615522,-0.5466 -0.620454,-0.7222 -1.162113,-1.6283 -1.624979,-2.7181 l -0.04924,0.029 c 0.39721,1.497 0.595818,2.6574 0.595825,3.4814 -7e-6,1.1752 -0.265913,2.0895 -0.797717,2.7428 -0.57121,0.7123 -1.354154,1.0685 -2.348833,1.0685 -0.663126,0 -1.237613,-0.2085 -1.723462,-0.6254 -0.512116,-0.4399 -0.768173,-1.0488 -0.768172,-1.8268 -10e-7,-0.8306 0.295449,-1.7284 0.886352,-2.6936 0.334841,-0.558 0.822335,-1.2261 1.462481,-2.0041 l -0.02954,-0.034 c -1.017666,0.6073 -1.672581,1.0374 -1.964747,1.2902 -0.128031,0.1083 -0.229797,0.1625 -0.305299,0.1625 -0.09192,0 -0.185479,-0.054 -0.280678,-0.1625 -0.177272,-0.1872 -0.302018,-0.4481 -0.374238,-0.783 l 0.21174,-0.1329"
         style="fill:#354358;font-family:'IPA明朝';-inkscape-font-specification:'IPA明朝'"
         id="path3706"
         inkscape:connector-curvature="0" />
      <path
         d="m 72.387433,1025.0077 -0.02954,-0.069 c -0.236364,-0.558 -0.405427,-0.9208 -0.50719,-1.0882 -0.141163,-0.2232 -0.295454,-0.3348 -0.462873,-0.3348 -0.07551,0 -0.1625,0.015 -0.260982,0.044 l -0.06894,-0.2462 c 0.347973,-0.174 0.623726,-0.261 0.827262,-0.261 0.216661,0 0.370951,0.1608 0.462873,0.4826 0.0098,0.059 0.03939,0.1477 0.08863,0.2659 0.03282,0.079 0.07714,0.1986 0.132953,0.3594 0.02626,0.089 0.106686,0.3053 0.241284,0.65 1.342654,-0.627 2.350469,-0.9405 3.023446,-0.9405 0.548217,0 0.978262,0.1313 1.290134,0.3939 0.344684,0.2922 0.51703,0.6451 0.517039,1.0587 -9e-6,0.5745 -0.2495,1.0193 -0.748475,1.3345 -0.28561,0.174 -0.617171,0.261 -0.994684,0.261 -0.55808,0 -1.076759,-0.1789 -1.55604,-0.5368 l 0.132953,-0.2117 c 0.423473,0.2429 0.815765,0.3644 1.176878,0.3644 0.351251,0 0.661474,-0.1051 0.93067,-0.3152 0.282311,-0.2101 0.423471,-0.5121 0.423479,-0.906 -8e-6,-0.7255 -0.400507,-1.0883 -1.201499,-1.0883 -0.656564,0 -1.574101,0.3218 -2.752616,0.9652 l -0.07879,0.044 0.359465,0.9454 c 0.233073,0.6106 0.58269,1.4215 1.04885,2.4326 0.121458,0.2626 0.182189,0.4579 0.182195,0.586 -6e-6,0.1542 -0.05745,0.2888 -0.172346,0.4037 -0.06894,0.059 -0.132959,0.089 -0.192043,0.089 -0.154296,0 -0.251138,-0.1084 -0.290527,-0.325 -0.124751,-0.627 -0.571209,-1.927 -1.339376,-3.9 -0.344696,0.197 -0.694312,0.4153 -1.04885,0.6549 -0.157576,0.1149 -0.275757,0.1724 -0.354541,0.1724 -0.305301,0 -0.594186,-0.2232 -0.866655,-0.6697 l 0.182194,-0.1674 c 0.111613,0.1214 0.233076,0.1822 0.364389,0.1822 0.157572,0 0.456305,-0.1084 0.896201,-0.325 l 0.374237,-0.1822 0.27083,-0.1231 m 0.694309,-2.7428 c 0.449737,0.033 0.840388,0.1215 1.171955,0.2659 0.390645,0.1707 0.585971,0.3759 0.585977,0.6155 -6e-6,0.2758 -0.118186,0.4137 -0.354541,0.4137 -0.09192,0 -0.188766,-0.08 -0.290527,-0.2413 -0.242931,-0.3874 -0.64343,-0.6681 -1.201499,-0.842 l 0.08864,-0.2118"
         style="fill:#354358;font-family:'IPA明朝';-inkscape-font-specification:'IPA明朝'"
         id="path3708"
         inkscape:connector-curvature="0" />
      <path
         d="m 82.506619,1023.3335 c 0.141156,-0.5023 0.211736,-0.9619 0.21174,-1.3788 -4e-6,-0.3414 -0.175633,-0.5466 -0.526887,-0.6155 l 0.05417,-0.2118 c 0.778016,0 1.167026,0.1822 1.16703,0.5466 -4e-6,0.1904 -0.12475,0.7075 -0.374238,1.5511 0.256053,-0.046 0.467793,-0.069 0.635219,-0.069 0.961851,0 1.442778,0.6451 1.442785,1.9352 -7e-6,1.2803 -0.362754,2.3685 -1.088244,3.2647 -0.311869,0.3841 -0.561361,0.5762 -0.748475,0.5762 -0.121467,0 -0.188764,-0.1281 -0.201891,-0.3841 -0.0099,-0.4038 -0.341414,-0.8568 -0.994684,-1.3591 l 0.09848,-0.2216 0.324996,0.2019 c 0.433324,0.2725 0.725491,0.4645 0.876504,0.5761 0.0755,0.053 0.136231,0.079 0.182194,0.079 0.07878,0 0.172342,-0.084 0.280679,-0.2511 0.469433,-0.6993 0.704152,-1.5692 0.704157,-2.6098 -5e-6,-0.975 -0.305304,-1.4625 -0.915897,-1.4625 -0.14773,0 -0.382449,0.039 -0.704158,0.1182 -0.331564,1.1588 -0.837113,2.3997 -1.516646,3.7226 -0.531814,1.0538 -0.874864,1.5807 -1.029154,1.5807 -0.18712,0 -0.280679,-0.1444 -0.280678,-0.4333 -10e-7,-0.1937 0.121462,-0.4465 0.364389,-0.7583 0.44974,-0.6041 0.902764,-1.4264 1.359074,-2.4671 0.252771,-0.581 0.438248,-1.0751 0.556432,-1.4821 -0.466159,0.151 -0.960217,0.3282 -1.482178,0.5318 -0.160858,0.069 -0.285604,0.1034 -0.374238,0.1034 -0.318431,0 -0.48257,-0.3496 -0.492417,-1.0489 l 0.241284,-0.074 c 0.05252,0.2659 0.203532,0.3988 0.453025,0.3988 0.137875,0 0.461229,-0.059 0.970063,-0.1772 l 0.472721,-0.1084 0.334844,-0.074 m 3.668513,2.2011 c 0.63357,-0.036 1.094801,-0.071 1.383694,-0.1034 l 0.03939,0 c 0.101758,-0.01 0.152641,-0.071 0.15265,-0.1822 -9e-6,-0.3414 -0.167431,-0.7518 -0.502266,-1.2311 -0.370963,-0.5055 -0.906056,-0.9618 -1.605282,-1.3689 l 0.128028,-0.2019 c 0.863365,0.3972 1.549467,0.9044 2.058307,1.5216 0.485843,0.5942 0.728768,1.2031 0.728778,1.8268 -1e-5,0.4432 -0.09685,0.6648 -0.290526,0.6648 -0.06895,0 -0.147735,-0.054 -0.236361,-0.1625 -0.187128,-0.2462 -0.459599,-0.4005 -0.817414,-0.4629 -0.190409,-0.03 -0.520329,-0.049 -0.989759,-0.059 l -0.04924,-0.2413"
         style="fill:#354358;font-family:'IPA明朝';-inkscape-font-specification:'IPA明朝'"
         id="path3710"
         inkscape:connector-curvature="0" />
      <path
         d="m 97.761723,1025.5937 c -0.374246,1.0603 -0.83876,1.8679 -1.393542,2.4227 -0.725503,0.7254 -1.549481,1.0882 -2.471938,1.0882 -1.539629,0 -2.309442,-1.0045 -2.309439,-3.0136 -3e-6,-0.3414 0.06401,-1.2606 0.192043,-2.7575 0.05252,-0.7222 0.07878,-1.108 0.07879,-1.1572 -2e-6,-0.4859 -0.177273,-0.8059 -0.531811,-0.9602 l 0.142801,-0.2019 c 0.80428,0.092 1.20642,0.389 1.206424,0.8912 -4e-6,0.062 -0.06074,0.3907 -0.182195,0.9849 -0.239646,1.2113 -0.359468,2.3176 -0.359465,3.3189 -3e-6,1.5462 0.615519,2.3193 1.846567,2.3193 1.414874,0 2.6016,-1.0292 3.560181,-3.0875 l 0.221588,0.1527 m -2.93481,-2.9644 c 0.833821,0.2725 1.250734,0.6254 1.250741,1.0587 -7e-6,0.2364 -0.105056,0.3545 -0.315147,0.3545 -0.154298,0 -0.270837,-0.1034 -0.349617,-0.3102 -0.131318,-0.3644 -0.367678,-0.6746 -0.709082,-0.9307 l 0.123105,-0.1723 m 0.95529,-0.6352 c 0.827255,0.2528 1.240885,0.5843 1.240893,0.9947 -8e-6,0.2429 -0.105057,0.3644 -0.315147,0.3644 -0.151016,0 -0.270837,-0.11 -0.359465,-0.33 -0.134601,-0.3414 -0.362755,-0.627 -0.684461,-0.8568 l 0.11818,-0.1723"
         style="fill:#354358;font-family:'IPA明朝';-inkscape-font-specification:'IPA明朝'"
         id="path3712"
         inkscape:connector-curvature="0" />
      <path
         d="m 100.24351,1022.2649 c 0.12803,0.2495 0.33648,0.3743 0.62537,0.3743 0.14444,0 1.32132,-0.2019 3.53064,-0.6057 1.62168,-0.2955 2.53266,-0.4432 2.73291,-0.4432 0.21666,0 0.4284,0.064 0.63522,0.192 0.12802,0.079 0.19204,0.174 0.19205,0.2856 -1e-5,0.1675 -0.14117,0.2512 -0.42348,0.2512 -0.0854,0 -0.21011,-0.013 -0.37424,-0.039 -0.30202,-0.036 -0.53346,-0.054 -0.69431,-0.054 -0.66313,0 -1.2409,0.2315 -1.73331,0.6943 -0.8207,0.7616 -1.23105,1.7465 -1.23105,2.9545 0,0.7551 0.21831,1.3312 0.65492,1.7284 0.34797,0.3086 0.81905,0.4629 1.41324,0.4629 0.19039,0 0.40049,-0.021 0.63029,-0.064 0.12146,-0.02 0.23307,-0.03 0.33485,-0.03 0.17398,0 0.33483,0.054 0.48257,0.1625 0.12802,0.089 0.19203,0.1789 0.19204,0.2709 -1e-5,0.2166 -0.38245,0.325 -1.14733,0.325 -2.09114,0 -3.13671,-0.934 -3.1367,-2.8019 -10e-6,-1.5363 0.73534,-2.7542 2.20603,-3.6537 l -0.01,-0.03 c -1.58559,0.3152 -2.86588,0.6582 -3.84086,1.0292 -0.21338,0.082 -0.36767,0.1231 -0.46287,0.1231 -0.39066,0 -0.65656,-0.3332 -0.79772,-0.9996 l 0.22159,-0.133"
         style="fill:#354358;font-family:'IPA明朝';-inkscape-font-specification:'IPA明朝'"
         id="path3714"
         inkscape:connector-curvature="0" />
      <path
         d="m 118.52698,1025.3819 c -0.5154,2.2126 -1.3837,3.3189 -2.60489,3.3189 -0.64671,0 -1.09645,-0.2528 -1.34922,-0.7583 -0.13132,-0.2725 -0.2216,-0.7157 -0.27083,-1.3295 -0.0624,-0.87 -0.25114,-1.3049 -0.56628,-1.3049 -0.27576,0 -0.6024,0.1887 -0.97991,0.5662 -0.68939,0.6927 -1.2606,1.5807 -1.71362,2.664 -0.0919,0.2232 -0.17891,0.3349 -0.26098,0.3349 -0.0624,0 -0.12311,-0.033 -0.18219,-0.099 -0.1346,-0.1576 -0.2019,-0.3135 -0.2019,-0.4678 0,-0.1149 0.0936,-0.3464 0.28068,-0.6943 0.95857,-1.7465 1.84328,-3.3206 2.65413,-4.7223 0.30202,-0.5351 0.45302,-0.9011 0.45303,-1.0981 -1e-5,-0.1904 -0.0969,-0.3693 -0.29053,-0.5367 l 0.14773,-0.1872 c 0.63357,0.2495 0.95036,0.5581 0.95036,0.9258 0,0.098 -0.0968,0.2774 -0.29052,0.5367 -0.55808,0.7354 -1.44936,2.1223 -2.67383,4.1609 l 0.0295,0.03 c 0.98155,-1.2836 1.74808,-1.9254 2.29959,-1.9254 0.63358,0 0.95693,0.568 0.97007,1.7038 0.01,0.7058 0.1034,1.1638 0.28068,1.3739 0.151,0.1805 0.3693,0.2708 0.65491,0.2708 0.98483,0 1.79568,-0.9537 2.43255,-2.861 l 0.23143,0.099"
         style="fill:#354358;font-family:'IPA明朝';-inkscape-font-specification:'IPA明朝'"
         id="path3716"
         inkscape:connector-curvature="0" />
    </g>
    <text
       xml:space="preserve"
       style="font-size:14.62411022px;font-style:normal;font-variant:normal;font-weight:500;font-stretch:normal;line-height:125%;letter-spacing:0px;word-spacing:0px;fill:#354358;fill-opacity:1;stroke:none;font-family:'M+ 1c';-inkscape-font-specification:'M+ 1c Medium'"
       x="-0.5410921"
       y="1052.2889"
       id="text5956"
       sodipodi:linespacing="125%"><tspan
         sodipodi:role="line"
         id="tspan5958"
         x="-0.5410921"
         y="1052.2889">©</tspan></text>
    <text
       xml:space="preserve"
       style="font-size:10.30778313px;font-style:normal;font-variant:normal;font-weight:500;font-stretch:normal;line-height:125%;letter-spacing:0px;word-spacing:0px;fill:#354358;fill-opacity:1;stroke:none;font-family:'M+ 1c';-inkscape-font-specification:'M+ 1c Medium'"
       x="15.325405"
       y="1050.7135"
       id="text5979"
       sodipodi:linespacing="125%"><tspan
         sodipodi:role="line"
         id="tspan5981"
         x="15.325405"
         y="1050.7135">2016</tspan></text>
  </g>
</svg>
